<svg width="19" height="18" viewBox="0 0 19 18" fill="none" xmlns="http://www.w3.org/2000/svg">
<g clip-path="url(#clip0_601_80514)">
<path d="M15.1672 7.3125C15.0716 7.3125 14.6595 7.31531 14.5108 7.3234L12.4799 7.37684L7.79634 1.6875H5.58817L8.21048 7.47457L4.78942 7.5252L3.23271 5.625H1.40071L2.12528 8.93602C2.13056 8.955 2.13688 8.97363 2.14392 8.99191C2.14443 8.99363 2.14443 8.99547 2.14392 8.99719C2.13671 9.01535 2.13049 9.0339 2.12528 9.05273L1.39087 12.375H3.21126L4.80911 10.4414L8.21118 10.5177L5.58782 16.3125H7.80267L12.4784 10.626L14.5094 10.6801C14.6602 10.6882 15.0719 10.691 15.1654 10.691C16.0215 10.691 16.7218 10.5736 17.247 10.3416C18.1379 9.94922 18.2708 9.33258 18.2708 9C18.2708 7.9432 17.1106 7.3125 15.1672 7.3125Z" fill="#2135E5"/>
</g>
<defs>
<clipPath id="clip0_601_80514">
<rect width="18" height="18" fill="white" transform="translate(0.833313)"/>
</clipPath>
</defs>
</svg>
